<svg width="89" height="89" viewBox="0 0 89 89" fill="none" xmlns="http://www.w3.org/2000/svg">
<g clip-path="url(#clip0_11_22)">
<path d="M84.0556 81.5833C84.0556 82.8947 83.5346 84.1523 82.6074 85.0796C81.6801 86.0068 80.4225 86.5278 79.1111 86.5278H71.6945C70.3831 86.5278 69.1255 86.0068 68.1982 85.0796C67.2709 84.1523 66.75 82.8947 66.75 81.5833V61.8055C66.75 60.4942 67.2709 59.2365 68.1982 58.3093C69.1255 57.382 70.3831 56.8611 71.6945 56.8611H79.1111C80.4225 56.8611 81.6801 57.382 82.6074 58.3093C83.5346 59.2365 84.0556 60.4942 84.0556 61.8055V81.5833ZM22.25 81.5833C22.25 82.8947 21.7291 84.1523 20.8018 85.0796C19.8745 86.0068 18.6169 86.5278 17.3056 86.5278H9.88889C8.57754 86.5278 7.3199 86.0068 6.39264 85.0796C5.46538 84.1523 4.94444 82.8947 4.94444 81.5833V61.8055C4.94444 60.4942 5.46538 59.2365 6.39264 58.3093C7.3199 57.382 8.57754 56.8611 9.88889 56.8611H17.3056C18.6169 56.8611 19.8745 57.382 20.8018 58.3093C21.7291 59.2365 22.25 60.4942 22.25 61.8055V81.5833ZM12.3611 38.3194C12.3611 39.3029 11.9704 40.2462 11.275 40.9416C10.5795 41.6371 9.63629 42.0278 8.65278 42.0278H3.70833C2.72482 42.0278 1.78159 41.6371 1.08615 40.9416C0.390698 40.2462 0 39.3029 0 38.3194C0 37.3359 0.390698 36.3927 1.08615 35.6972C1.78159 35.0018 2.72482 34.6111 3.70833 34.6111H8.65278C9.63629 34.6111 10.5795 35.0018 11.275 35.6972C11.9704 36.3927 12.3611 37.3359 12.3611 38.3194ZM76.6389 38.3194C76.6389 39.3029 77.0296 40.2462 77.725 40.9416C78.4205 41.6371 79.3637 42.0278 80.3472 42.0278H85.2917C86.2752 42.0278 87.2184 41.6371 87.9139 40.9416C88.6093 40.2462 89 39.3029 89 38.3194C89 37.3359 88.6093 36.3927 87.9139 35.6972C87.2184 35.0018 86.2752 34.6111 85.2917 34.6111H80.3472C79.3637 34.6111 78.4205 35.0018 77.725 35.6972C77.0296 36.3927 76.6389 37.3359 76.6389 38.3194Z" fill="#66757F"/>
<path d="M22.25 12.3611C32.1389 9.8889 56.8611 9.8889 66.75 12.3611C76.3447 14.7592 79.1111 39.5556 79.1111 39.5556C79.1111 39.5556 84.0556 39.5556 84.0556 49.4445V69.2222C84.0556 69.2222 84.0556 76.6389 76.6389 79.1111C66.97 82.3349 56.8611 81.5833 44.5 81.5833C32.1389 81.5833 22.0325 82.3349 12.3611 79.1111C4.94446 76.6389 4.94446 69.2222 4.94446 69.2222V49.4445C4.94446 49.4445 4.94446 39.5556 9.8889 39.5556C9.8889 39.5556 12.6578 14.7592 22.25 12.3611Z" fill="#CCD6DD"/>
<path d="M44.5 51.9167C30.3638 51.9167 16.9693 51.667 4.94446 51.2269V69.2222C4.94446 69.2222 4.94446 76.6389 12.3611 79.1111C22.0325 82.3349 32.1389 81.5833 44.5 81.5833C56.8611 81.5833 66.97 82.3349 76.6389 79.1111C84.0556 76.6389 84.0556 69.2222 84.0556 69.2222V51.2269C72.0307 51.667 58.6362 51.9167 44.5 51.9167Z" fill="#292F33"/>
<path d="M44.5 37.0833C54.154 37.0833 65.818 37.5778 74.1667 38.4702L71.6945 24.7222C69.2222 17.3055 54.3889 17.3055 44.5 17.3055C34.6111 17.3055 19.7778 17.3055 17.3056 24.7222L14.8333 38.4702C23.182 37.5778 34.846 37.0833 44.5 37.0833Z" fill="#55ACEE"/>
<path d="M29.6667 59.3334C29.6667 60.6447 29.1457 61.9023 28.2185 62.8296C27.2912 63.7569 26.0336 64.2778 24.7222 64.2778H14.8333C13.522 64.2778 12.2643 63.7569 11.3371 62.8296C10.4098 61.9023 9.88889 60.6447 9.88889 59.3334C9.88889 58.022 10.4098 56.7644 11.3371 55.8371C12.2643 54.9098 13.522 54.3889 14.8333 54.3889H24.7222C26.0336 54.3889 27.2912 54.9098 28.2185 55.8371C29.1457 56.7644 29.6667 58.022 29.6667 59.3334ZM59.3333 59.3334C59.3333 60.6447 59.8543 61.9023 60.7815 62.8296C61.7088 63.7569 62.9664 64.2778 64.2778 64.2778H74.1667C75.478 64.2778 76.7356 63.7569 77.6629 62.8296C78.5902 61.9023 79.1111 60.6447 79.1111 59.3334C79.1111 58.022 78.5902 56.7644 77.6629 55.8371C76.7356 54.9098 75.478 54.3889 74.1667 54.3889H64.2778C62.9664 54.3889 61.7088 54.9098 60.7815 55.8371C59.8543 56.7644 59.3333 58.022 59.3333 59.3334Z" fill="#CCD6DD"/>
<path d="M71.6944 70.4583C71.6944 71.4418 71.3037 72.3851 70.6083 73.0805C69.9128 73.776 68.9696 74.1667 67.9861 74.1667H21.0139C20.0304 74.1667 19.0871 73.776 18.3917 73.0805C17.6962 72.3851 17.3055 71.4418 17.3055 70.4583C17.3055 69.4748 17.6962 68.5316 18.3917 67.8361C19.0871 67.1407 20.0304 66.75 21.0139 66.75H67.9861C68.9696 66.75 69.9128 67.1407 70.6083 67.8361C71.3037 68.5316 71.6944 69.4748 71.6944 70.4583Z" fill="#66757F"/>
<path d="M29.6642 51.9167C29.2934 51.9167 28.9151 51.8326 28.5616 51.6571L13.7283 44.2404C13.1418 43.947 12.6958 43.4326 12.4886 42.8104C12.2814 42.1882 12.3298 41.5092 12.6232 40.9227C12.9166 40.3362 13.431 39.8903 14.0532 39.683C14.6754 39.4758 15.3544 39.5242 15.9409 39.8176L30.7742 47.2343C31.2721 47.4838 31.6712 47.8941 31.9067 48.3988C32.1423 48.9034 32.2005 49.4728 32.0721 50.0147C31.9436 50.5566 31.6359 51.0392 31.1989 51.3844C30.7619 51.7296 30.2211 51.9172 29.6642 51.9167ZM59.3358 51.9167C58.778 51.9183 58.236 51.7313 57.798 51.3859C57.3599 51.0406 57.0515 50.5572 56.9229 50.0144C56.7943 49.4716 56.8531 48.9013 57.0896 48.3961C57.3261 47.891 57.7265 47.4806 58.2258 47.2318L73.0591 39.8151C73.6456 39.5217 74.3247 39.4733 74.9468 39.6806C75.569 39.8878 76.0834 40.3337 76.3768 40.9202C76.6702 41.5067 76.7187 42.1858 76.5114 42.8079C76.3042 43.4301 75.8583 43.9445 75.2718 44.2379L60.4384 51.6546C60.0965 51.827 59.7188 51.9168 59.3358 51.9167Z" fill="#99AAB5"/>
<path d="M44.5 8.65279C44.5 9.6363 44.1093 10.5795 43.4138 11.275C42.7184 11.9704 41.7752 12.3611 40.7917 12.3611H23.4861C22.9991 12.3611 22.5169 12.2652 22.067 12.0788C21.6171 11.8925 21.2083 11.6193 20.8639 11.275C20.5196 10.9306 20.2464 10.5218 20.0601 10.0719C19.8737 9.62199 19.7778 9.13978 19.7778 8.65279C19.7778 8.16581 19.8737 7.68359 20.0601 7.23367C20.2464 6.78376 20.5196 6.37495 20.8639 6.0306C21.2083 5.68625 21.6171 5.4131 22.067 5.22674C22.5169 5.04038 22.9991 4.94446 23.4861 4.94446H40.7917C41.7752 4.94446 42.7184 5.33516 43.4138 6.0306C44.1093 6.72605 44.5 7.66928 44.5 8.65279Z" fill="#DD2E44"/>
<path d="M69.2222 8.65279C69.2222 9.6363 68.8315 10.5795 68.1361 11.275C67.4406 11.9704 66.4974 12.3611 65.5139 12.3611H48.2083C47.7213 12.3611 47.2391 12.2652 46.7892 12.0788C46.3393 11.8925 45.9305 11.6193 45.5861 11.275C45.2418 10.9306 44.9686 10.5218 44.7823 10.0719C44.5959 9.62199 44.5 9.13978 44.5 8.65279C44.5 8.16581 44.5959 7.68359 44.7823 7.23367C44.9686 6.78376 45.2418 6.37495 45.5861 6.0306C45.9305 5.68625 46.3393 5.4131 46.7892 5.22674C47.2391 5.04038 47.7213 4.94446 48.2083 4.94446H65.5139C66.4974 4.94446 67.4406 5.33516 68.1361 6.0306C68.8315 6.72605 69.2222 7.66928 69.2222 8.65279Z" fill="#55ACEE"/>
<path d="M39.5555 4.94446H49.4444V12.3611H39.5555V4.94446Z" fill="#F5F8FA"/>
</g>
<defs>
<clipPath id="clip0_11_22">
<rect width="89" height="89" fill="white"/>
</clipPath>
</defs>
</svg>
