<svg width="45" height="45" viewBox="0 0 45 45" fill="none" xmlns="http://www.w3.org/2000/svg">
<rect width="45" height="45" fill="#FFC700"/>
<path fill-rule="evenodd" clip-rule="evenodd" d="M22.5 5C32.1649 5 40 12.883 40 22.6069C40 31.3952 33.6005 38.6792 25.2344 40V27.6965H29.312L30.0879 22.6069H25.2344V19.3043C25.2344 17.9118 25.9122 16.5546 28.0863 16.5546H30.293V12.2216C30.293 12.2216 28.2903 11.8777 26.3756 11.8777C22.3783 11.8777 19.7656 14.3152 19.7656 18.7279V22.6069H15.3223V27.6965H19.7656V40C11.3995 38.6792 5 31.395 5 22.6069C5 12.8828 12.8351 5 22.5 5Z" fill="#182DEC"/>
</svg>
