<svg width="71" height="71" viewBox="0 0 71 71" fill="none" xmlns="http://www.w3.org/2000/svg">
<path d="M67.375 62.0625H3.625V33.7292L35.5 3.625L67.375 33.7292V62.0625Z" fill="#E8EAF6"/>
<path d="M62.0625 30.1875L53.2083 21.3333V8.9375H62.0625V30.1875ZM3.625 62.0625H67.375V70.9167H3.625V62.0625Z" fill="#C5CAE9"/>
<path d="M35.5 0.614594L0.0833435 33.5521L3.62501 37.4479L35.5 7.87501L67.375 37.4479L70.9167 33.5521L35.5 0.614594Z" fill="#B71C1C"/>
<path d="M24.875 42.5833H46.125V70.9166H24.875V42.5833Z" fill="#D84315"/>
<path d="M30.1875 23.1042H40.8125V33.7292H30.1875V23.1042Z" fill="#01579B"/>
<path d="M41.6979 55.8646C41.1667 55.8646 40.8125 56.2188 40.8125 56.75V60.2917C40.8125 60.8229 41.1667 61.1771 41.6979 61.1771C42.2292 61.1771 42.5833 60.8229 42.5833 60.2917V56.75C42.5833 56.2188 42.2292 55.8646 41.6979 55.8646Z" fill="#FF8A65"/>
</svg>
