<svg width="45" height="45" viewBox="0 0 45 45" fill="none" xmlns="http://www.w3.org/2000/svg">
<rect width="45" height="45" fill="#FFC700"/>
<g clip-path="url(#clip0_41_154)">
<rect width="35" height="35" transform="translate(5 5)" fill="white"/>
<path d="M31.7969 5H13.2031C8.67266 5 5 8.67266 5 13.2031V31.7969C5 36.3273 8.67266 40 13.2031 40H31.7969C36.3273 40 40 36.3273 40 31.7969V13.2031C40 8.67266 36.3273 5 31.7969 5Z" fill="url(#paint0_radial_41_154)"/>
<path d="M31.7969 5H13.2031C8.67266 5 5 8.67266 5 13.2031V31.7969C5 36.3273 8.67266 40 13.2031 40H31.7969C36.3273 40 40 36.3273 40 31.7969V13.2031C40 8.67266 36.3273 5 31.7969 5Z" fill="url(#paint1_radial_41_154)"/>
<path d="M22.5012 8.82812C18.7882 8.82812 18.3221 8.84439 16.8639 8.9107C15.4084 8.97742 14.4149 9.20779 13.5456 9.5459C12.6463 9.89508 11.8835 10.3622 11.1236 11.1224C10.3631 11.8824 9.8959 12.6452 9.54563 13.5441C9.20656 14.4136 8.97592 15.4076 8.91043 16.8624C8.84521 18.3208 8.82812 18.787 8.82812 22.5001C8.82812 26.2133 8.84453 26.6779 8.9107 28.1361C8.9777 29.5916 9.20807 30.5851 9.5459 31.4544C9.89535 32.3537 10.3625 33.1165 11.1227 33.8764C11.8824 34.6369 12.6452 35.1052 13.5438 35.4544C14.4138 35.7925 15.4074 36.0229 16.8627 36.0896C18.3211 36.1559 18.7867 36.1721 22.4996 36.1721C26.213 36.1721 26.6776 36.1559 28.1358 36.0896C29.5913 36.0229 30.586 35.7925 31.4559 35.4544C32.3548 35.1052 33.1165 34.6369 33.8761 33.8764C34.6367 33.1165 35.1037 32.3537 35.4541 31.4548C35.7902 30.5851 36.0209 29.5913 36.0893 28.1364C36.1548 26.6781 36.1719 26.2133 36.1719 22.5001C36.1719 18.787 36.1548 18.3211 36.0893 16.8627C36.0209 15.4072 35.7902 14.4138 35.4541 13.5445C35.1037 12.6452 34.6367 11.8824 33.8761 11.1224C33.1157 10.362 32.3551 9.8948 31.4551 9.54604C30.5835 9.20779 29.5894 8.97729 28.1339 8.9107C26.6755 8.84439 26.2112 8.82812 22.497 8.82812H22.5012ZM21.2747 11.2919C21.6388 11.2914 22.045 11.2919 22.5012 11.2919C26.1518 11.2919 26.5843 11.3051 28.0259 11.3705C29.3589 11.4315 30.0824 11.6542 30.5644 11.8414C31.2024 12.0891 31.6573 12.3854 32.1355 12.8641C32.614 13.3426 32.9102 13.7983 33.1586 14.4363C33.3458 14.9176 33.5688 15.6411 33.6295 16.9741C33.6949 18.4154 33.7092 18.8482 33.7092 22.497C33.7092 26.1457 33.6949 26.5787 33.6295 28.0199C33.5685 29.3529 33.3458 30.0764 33.1586 30.5578C32.9109 31.1959 32.614 31.6502 32.1355 32.1284C31.657 32.6069 31.2027 32.9031 30.5644 33.1509C30.083 33.3389 29.3589 33.5611 28.0259 33.6221C26.5846 33.6876 26.1518 33.7018 22.5012 33.7018C18.8506 33.7018 18.4179 33.6876 16.9767 33.6221C15.6437 33.5605 14.9202 33.3378 14.4378 33.1507C13.7999 32.9028 13.3441 32.6067 12.8656 32.1281C12.3871 31.6496 12.0909 31.195 11.8425 30.5567C11.6553 30.0753 11.4323 29.3518 11.3716 28.0188C11.3062 26.5775 11.293 26.1446 11.293 22.4936C11.293 18.8426 11.3062 18.412 11.3716 16.9707C11.4326 15.6377 11.6553 14.9142 11.8425 14.4322C12.0904 13.7942 12.3871 13.3385 12.8657 12.86C13.3442 12.3814 13.7999 12.0852 14.438 11.8369C14.9199 11.6489 15.6437 11.4267 16.9767 11.3655C18.2379 11.3085 18.7267 11.2914 21.2747 11.2885V11.2919ZM29.7993 13.562C28.8935 13.562 28.1587 14.2962 28.1587 15.2021C28.1587 16.1079 28.8935 16.8427 29.7993 16.8427C30.705 16.8427 31.4399 16.1079 31.4399 15.2021C31.4399 14.2963 30.705 13.5615 29.7993 13.5615V13.562ZM22.5012 15.4789C18.6239 15.4789 15.4802 18.6227 15.4802 22.5001C15.4802 26.3776 18.6239 29.5198 22.5012 29.5198C26.3787 29.5198 29.5213 26.3776 29.5213 22.5001C29.5213 18.6228 26.3784 15.4789 22.501 15.4789H22.5012ZM22.5012 17.9428C25.0181 17.9428 27.0586 19.983 27.0586 22.5001C27.0586 25.017 25.0181 27.0575 22.5012 27.0575C19.9842 27.0575 17.944 25.017 17.944 22.5001C17.944 19.983 19.9842 17.9428 22.5012 17.9428Z" fill="white"/>
</g>
<defs>
<radialGradient id="paint0_radial_41_154" cx="0" cy="0" r="1" gradientUnits="userSpaceOnUse" gradientTransform="translate(14.2969 42.6957) rotate(-90) scale(34.6876 32.2622)">
<stop stop-color="#FFDD55"/>
<stop offset="0.1" stop-color="#FFDD55"/>
<stop offset="0.5" stop-color="#FF543E"/>
<stop offset="1" stop-color="#C837AB"/>
</radialGradient>
<radialGradient id="paint1_radial_41_154" cx="0" cy="0" r="1" gradientUnits="userSpaceOnUse" gradientTransform="translate(-0.862637 7.52123) rotate(78.681) scale(15.5055 63.9144)">
<stop stop-color="#3771C8"/>
<stop offset="0.128" stop-color="#3771C8"/>
<stop offset="1" stop-color="#6600FF" stop-opacity="0"/>
</radialGradient>
<clipPath id="clip0_41_154">
<rect width="35" height="35" fill="white" transform="translate(5 5)"/>
</clipPath>
</defs>
</svg>
