<svg width="45" height="45" viewBox="0 0 45 45" fill="none" xmlns="http://www.w3.org/2000/svg">
<path d="M0 0H45V45H0V0Z" fill="#FFC700"/>
<path d="M31.7969 5H13.2031C8.67266 5 5 8.67266 5 13.2031V31.7969C5 36.3273 8.67266 40 13.2031 40H31.7969C36.3273 40 40 36.3273 40 31.7969V13.2031C40 8.67266 36.3273 5 31.7969 5Z" fill="url(#paint0_radial_74_5)"/>
<path d="M31.7969 5H13.2031C8.67266 5 5 8.67266 5 13.2031V31.7969C5 36.3273 8.67266 40 13.2031 40H31.7969C36.3273 40 40 36.3273 40 31.7969V13.2031C40 8.67266 36.3273 5 31.7969 5Z" fill="url(#paint1_radial_74_5)"/>
<path d="M22.6731 8C18.9601 8 18.494 8.01627 17.0358 8.08258C15.5803 8.1493 14.5867 8.37967 13.7175 8.71777C12.8181 9.06695 12.0554 9.53412 11.2955 10.2943C10.5349 11.0543 10.0678 11.8171 9.7175 12.716C9.37844 13.5855 9.14779 14.5795 9.0823 16.0343C9.01709 17.4927 9 17.9589 9 21.672C9 25.3852 9.01641 25.8497 9.08258 27.308C9.14957 28.7635 9.37994 29.757 9.71777 30.6263C10.0672 31.5256 10.5344 32.2884 11.2946 33.0482C12.0543 33.8088 12.8171 34.2771 13.7157 34.6262C14.5856 34.9644 15.5793 35.1947 17.0346 35.2614C18.4929 35.3278 18.9586 35.344 22.6715 35.344C26.3849 35.344 26.8495 35.3278 28.3077 35.2614C29.7632 35.1947 30.7578 34.9644 31.6278 34.6262C32.5267 34.2771 33.2884 33.8088 34.048 33.0482C34.8085 32.2884 35.2756 31.5256 35.626 30.6267C35.962 29.757 36.1928 28.7632 36.2612 27.3082C36.3267 25.85 36.3438 25.3852 36.3438 21.672C36.3438 17.9589 36.3267 17.4929 36.2612 16.0346C36.1928 14.579 35.962 13.5856 35.626 12.7164C35.2756 11.8171 34.8085 11.0543 34.048 10.2943C33.2875 9.53385 32.527 9.06668 31.627 8.71791C30.7554 8.37967 29.7613 8.14916 28.3058 8.08258C26.8474 8.01627 26.3831 8 22.6689 8H22.6731ZM21.4466 10.4638C21.8107 10.4633 22.2169 10.4638 22.6731 10.4638C26.3236 10.4638 26.7562 10.4769 28.1978 10.5424C29.5308 10.6034 30.2543 10.8261 30.7362 11.0133C31.3743 11.261 31.8292 11.5573 32.3074 12.0359C32.7859 12.5145 33.0821 12.9701 33.3305 13.6082C33.5176 14.0895 33.7406 14.813 33.8013 16.146C33.8668 17.5873 33.881 18.0201 33.881 21.6689C33.881 25.3176 33.8668 25.7506 33.8013 27.1918C33.7404 28.5248 33.5176 29.2483 33.3305 29.7297C33.0827 30.3677 32.7859 30.8221 32.3074 31.3003C31.8289 31.7788 31.3746 32.0749 30.7362 32.3228C30.2548 32.5108 29.5308 32.733 28.1978 32.7939C26.7565 32.8594 26.3236 32.8737 22.6731 32.8737C19.0224 32.8737 18.5897 32.8594 17.1486 32.7939C15.8156 32.7324 15.0921 32.5097 14.6097 32.3225C13.9718 32.0747 13.516 31.7785 13.0374 31.3C12.5589 30.8215 12.2628 30.3669 12.0144 29.7286C11.8272 29.2472 11.6042 28.5237 11.5435 27.1907C11.478 25.7494 11.4649 25.3165 11.4649 21.6654C11.4649 18.0145 11.478 17.5838 11.5435 16.1426C11.6045 14.8096 11.8272 14.086 12.0144 13.6041C12.2622 12.966 12.5589 12.5104 13.0376 12.0318C13.5161 11.5533 13.9718 11.2571 14.6098 11.0088C15.0918 10.8208 15.8156 10.5986 17.1486 10.5374C18.4098 10.4804 18.8986 10.4633 21.4466 10.4604V10.4638ZM29.9712 12.7339C29.0654 12.7339 28.3305 13.4681 28.3305 14.374C28.3305 15.2797 29.0654 16.0146 29.9712 16.0146C30.8769 16.0146 31.6118 15.2797 31.6118 14.374C31.6118 13.4682 30.8769 12.7333 29.9712 12.7333V12.7339ZM22.6731 14.6508C18.7958 14.6508 15.6521 17.7945 15.6521 21.672C15.6521 25.5495 18.7958 28.6917 22.6731 28.6917C26.5506 28.6917 29.6932 25.5495 29.6932 21.672C29.6932 17.7947 26.5503 14.6508 22.6728 14.6508H22.6731ZM22.6731 17.1146C25.19 17.1146 27.2305 19.1549 27.2305 21.672C27.2305 24.1889 25.19 26.2294 22.6731 26.2294C20.1561 26.2294 18.1159 24.1889 18.1159 21.672C18.1159 19.1549 20.1561 17.1146 22.6731 17.1146Z" fill="#FFC700"/>
<defs>
<radialGradient id="paint0_radial_74_5" cx="0" cy="0" r="1" gradientUnits="userSpaceOnUse" gradientTransform="translate(14.2969 42.6957) rotate(-90) scale(34.6876 32.2622)">
<stop stop-color="#FFDD55"/>
<stop offset="0.1" stop-color="#FFDD55"/>
<stop offset="0.5" stop-color="#FF543E"/>
<stop offset="1" stop-color="#C837AB"/>
</radialGradient>
<radialGradient id="paint1_radial_74_5" cx="0" cy="0" r="1" gradientUnits="userSpaceOnUse" gradientTransform="translate(-0.862637 7.52123) rotate(78.681) scale(15.5055 63.9144)">
<stop stop-color="#3771C8"/>
<stop offset="0.128" stop-color="#3771C8"/>
<stop offset="1" stop-color="#6600FF" stop-opacity="0"/>
</radialGradient>
</defs>
</svg>
