<svg width="82" height="82" viewBox="0 0 82 82" fill="none" xmlns="http://www.w3.org/2000/svg">
<path d="M17.0832 30.7501V71.7501H3.4165V30.7501H17.0832ZM30.7498 71.7501C28.9375 71.7501 27.1994 71.0301 25.9179 69.7486C24.6364 68.4671 23.9165 66.7291 23.9165 64.9167V30.7501C23.9165 28.8709 24.6682 27.1626 25.9323 25.9326L48.414 3.41675L52.0357 7.03841C52.9582 7.96091 53.539 9.22508 53.539 10.6259L53.4365 11.7192L50.1907 27.3334H71.7498C73.5621 27.3334 75.3002 28.0534 76.5817 29.3349C77.8632 30.6164 78.5832 32.3544 78.5832 34.1667V41.0001C78.5832 41.8884 78.4123 42.7084 78.1048 43.4942L67.7865 67.5817C66.7615 70.0417 64.3357 71.7501 61.4998 71.7501H30.7498ZM30.7498 64.9167H61.6023L71.7498 41.0001V34.1667H41.7173L45.5782 15.9901L30.7498 30.8526V64.9167Z" fill="black"/>
</svg>
