<svg width="272" height="393" viewBox="0 0 272 393" fill="none" xmlns="http://www.w3.org/2000/svg">
<path d="M251 151.688C264.125 119.813 253.813 101.687 247.875 85.4375C242.563 71.0625 257.25 63.875 257.25 63.875C251.625 63.875 245.375 61.375 245.375 61.375C256.625 53.5625 263.5 32.9375 263.5 32.9375C255.688 40.125 245.063 40.4375 245.063 40.4375C262.563 23.5625 257.25 0.125 257.25 0.125C257.25 0.125 239.125 24.5 205.375 39.1875C177.875 51.0625 147.562 53.875 136.312 53.875C125.062 53.875 94.75 51.0625 67.25 39.1875C33.1875 24.8125 15.0625 0.125 15.0625 0.125C15.0625 0.125 9.4375 23.5625 27.25 40.4375C27.25 40.4375 16.625 40.125 8.81249 32.9375C8.81249 32.9375 15.375 53.5625 26.9375 61.375C26.9375 61.375 20.6875 63.875 15.0625 63.875C15.0625 63.875 29.75 71.0625 24.4375 85.4375C18.5 101.687 8.18749 119.5 21.3125 151.688C21.3125 151.688 -68.375 301.375 126.312 390.125C129.437 391.688 132.875 392.312 136.312 392.312C139.75 392.312 143.188 391.375 146.313 390.125C340.688 301.375 251 151.688 251 151.688Z" fill="#885C52"/>
<path d="M193.5 172.938C218.871 172.938 239.438 152.371 239.438 127C239.438 101.629 218.871 81.0625 193.5 81.0625C168.129 81.0625 147.563 101.629 147.563 127C147.563 152.371 168.129 172.938 193.5 172.938Z" fill="#BB917A"/>
<path d="M193.5 162.313C213.003 162.313 228.812 146.503 228.812 127C228.812 107.497 213.003 91.6875 193.5 91.6875C173.997 91.6875 158.188 107.497 158.188 127C158.188 146.503 173.997 162.313 193.5 162.313Z" fill="white"/>
<path d="M193.5 147.312C204.718 147.312 213.813 138.218 213.813 127C213.813 115.782 204.718 106.688 193.5 106.688C182.282 106.688 173.188 115.782 173.188 127C173.188 138.218 182.282 147.312 193.5 147.312Z" fill="#2F2F2F"/>
<path d="M78.8125 172.938C104.183 172.938 124.75 152.371 124.75 127C124.75 101.629 104.183 81.0625 78.8125 81.0625C53.4419 81.0625 32.875 101.629 32.875 127C32.875 152.371 53.4419 172.938 78.8125 172.938Z" fill="#BB917A"/>
<path d="M78.8125 162.313C98.315 162.313 114.125 146.503 114.125 127C114.125 107.497 98.315 91.6875 78.8125 91.6875C59.3099 91.6875 43.5 107.497 43.5 127C43.5 146.503 59.3099 162.313 78.8125 162.313Z" fill="white"/>
<path d="M78.8125 147.312C90.0308 147.312 99.125 138.218 99.125 127C99.125 115.782 90.0308 106.688 78.8125 106.688C67.5942 106.688 58.5 115.782 58.5 127C58.5 138.218 67.5942 147.312 78.8125 147.312Z" fill="#2F2F2F"/>
<path d="M56 252.312C56 209.812 77.875 184.5 136 184.5V358.875C136 358.875 109.437 357.312 89.4375 335.125C73.8125 317.625 56 286.062 56 252.312Z" fill="#FEF6E0"/>
<path d="M216 252.312C216 209.812 194.125 184.5 136 184.5V358.875C136 358.875 162.563 357.312 182.563 335.125C198.188 317.625 216 286.062 216 252.312Z" fill="#FEF6E0"/>
<path d="M51.9375 375.125C46.9375 375.125 42.5625 371.063 42.5625 365.75V336.062C42.5625 331.062 46.625 326.688 51.9375 326.688C56.9375 326.688 61.3125 330.75 61.3125 336.062V365.75C61 371.063 56.9375 375.125 51.9375 375.125Z" fill="#FFC148"/>
<path d="M51.9375 328.25C56.3125 328.25 59.75 331.688 59.75 336.062V365.75C59.75 370.125 56.3125 373.562 51.9375 373.562C47.5625 373.562 44.125 370.125 44.125 365.75V336.062C44.125 331.688 47.5625 328.25 51.9375 328.25ZM51.9375 325.125C46 325.125 41 330.125 41 336.062V365.75C41 371.687 46 376.688 51.9375 376.688C57.875 376.688 62.875 371.687 62.875 365.75V336.062C62.5625 330.125 57.875 325.125 51.9375 325.125Z" fill="#885C52"/>
<path d="M70.6875 375.125C65.6875 375.125 61.3125 371.063 61.3125 365.75V336.062C61.3125 331.062 65.375 326.688 70.6875 326.688C75.6875 326.688 80.0625 330.75 80.0625 336.062V365.75C80.0625 371.063 75.6875 375.125 70.6875 375.125Z" fill="#FFC148"/>
<path d="M70.6875 328.25C75.0625 328.25 78.5 331.688 78.5 336.062V365.75C78.5 370.125 75.0625 373.562 70.6875 373.562C66.3125 373.562 62.875 370.125 62.875 365.75V336.062C62.875 331.688 66.3125 328.25 70.6875 328.25ZM70.6875 325.125C64.75 325.125 59.75 330.125 59.75 336.062V365.75C59.75 371.687 64.75 376.688 70.6875 376.688C76.625 376.688 81.625 371.687 81.625 365.75V336.062C81.625 330.125 76.625 325.125 70.6875 325.125Z" fill="#885C52"/>
<path d="M90.0625 375.125C85.0625 375.125 80.6875 371.063 80.6875 365.75V336.062C80.6875 331.062 84.75 326.688 90.0625 326.688C95.375 326.688 99.4375 330.75 99.4375 336.062V365.75C99.4375 371.063 95.0625 375.125 90.0625 375.125Z" fill="#FFC148"/>
<path d="M90.0625 328.25C94.4375 328.25 97.875 331.688 97.875 336.062V365.75C97.875 370.125 94.4375 373.562 90.0625 373.562C85.6875 373.562 82.25 370.125 82.25 365.75V336.062C82.25 331.688 85.6875 328.25 90.0625 328.25ZM90.0625 325.125C84.125 325.125 79.125 330.125 79.125 336.062V365.75C79.125 371.687 84.125 376.688 90.0625 376.688C96 376.688 101 371.687 101 365.75V336.062C101 330.125 96 325.125 90.0625 325.125Z" fill="#885C52"/>
<path d="M181 375.125C176 375.125 171.625 371.063 171.625 365.75V336.062C171.625 331.062 175.688 326.688 181 326.688C186 326.688 190.375 330.75 190.375 336.062V365.75C190.375 371.063 186 375.125 181 375.125Z" fill="#FFC148"/>
<path d="M181 328.25C185.375 328.25 188.813 331.688 188.813 336.062V365.75C188.813 370.125 185.375 373.562 181 373.562C176.625 373.562 173.188 370.125 173.188 365.75V336.062C173.188 331.688 176.625 328.25 181 328.25ZM181 325.125C175.063 325.125 170.063 330.125 170.063 336.062V365.75C170.063 371.687 175.063 376.688 181 376.688C186.938 376.688 191.938 371.687 191.938 365.75V336.062C191.938 330.125 186.938 325.125 181 325.125Z" fill="#885C52"/>
<path d="M199.75 375.125C194.75 375.125 190.375 371.063 190.375 365.75V336.062C190.375 331.062 194.438 326.688 199.75 326.688C205.063 326.688 209.125 330.75 209.125 336.062V365.75C209.125 371.063 205.063 375.125 199.75 375.125Z" fill="#FFC148"/>
<path d="M199.75 328.25C204.125 328.25 207.563 331.688 207.563 336.062V365.75C207.563 370.125 204.125 373.562 199.75 373.562C195.375 373.562 191.938 370.125 191.938 365.75V336.062C191.938 331.688 195.375 328.25 199.75 328.25ZM199.75 325.125C193.813 325.125 188.813 330.125 188.813 336.062V365.75C188.813 371.687 193.813 376.688 199.75 376.688C205.688 376.688 210.688 371.687 210.688 365.75V336.062C210.688 330.125 205.688 325.125 199.75 325.125Z" fill="#885C52"/>
<path d="M219.125 375.125C214.125 375.125 209.75 371.063 209.75 365.75V336.062C209.75 331.062 213.812 326.688 219.125 326.688C224.125 326.688 228.5 330.75 228.5 336.062V365.75C228.5 371.063 224.125 375.125 219.125 375.125Z" fill="#FFC148"/>
<path d="M219.125 328.25C223.5 328.25 226.938 331.688 226.938 336.062V365.75C226.938 370.125 223.5 373.562 219.125 373.562C214.75 373.562 211.312 370.125 211.312 365.75V336.062C211.312 331.688 214.75 328.25 219.125 328.25ZM219.125 325.125C213.188 325.125 208.188 330.125 208.188 336.062V365.75C208.188 371.687 213.188 376.688 219.125 376.688C225.062 376.688 230.062 371.687 230.062 365.75V336.062C230.062 330.125 225.062 325.125 219.125 325.125Z" fill="#885C52"/>
<path d="M146.313 152C141 145.437 131.312 145.437 126 152C121.937 157 118.187 163.875 118.812 172.937C119.437 186.062 126.938 195.437 131.938 200.125C134.438 202.312 137.875 202.312 140.375 200.125C145.375 195.437 152.875 186.062 153.5 172.937C153.812 163.562 150.375 156.687 146.313 152Z" fill="#FFC148"/>
<path d="M197.25 127C201.047 127 204.125 123.782 204.125 119.812C204.125 115.843 201.047 112.625 197.25 112.625C193.453 112.625 190.375 115.843 190.375 119.812C190.375 123.782 193.453 127 197.25 127Z" fill="white"/>
<path d="M84.125 127C87.922 127 91 123.782 91 119.812C91 115.843 87.922 112.625 84.125 112.625C80.328 112.625 77.25 115.843 77.25 119.812C77.25 123.782 80.328 127 84.125 127Z" fill="white"/>
<path d="M81.625 236.688C89.4375 251.375 110.375 251.375 117.875 236.688C125.688 251.375 146.625 251.375 154.125 236.688C161.938 251.375 182.875 251.375 190.375 236.688M99.75 286.375C107.563 301.063 128.5 301.063 136 286.375C143.813 301.063 164.75 301.063 172.25 286.375" stroke="#BB917A" stroke-width="7.03125" stroke-miterlimit="10" stroke-linecap="round" stroke-linejoin="round"/>
</svg>
