<svg width="82" height="82" viewBox="0 0 82 82" fill="none" xmlns="http://www.w3.org/2000/svg">
<path d="M23.9165 61.5V58.0833C23.9165 53.5526 25.7163 49.2073 28.9201 46.0036C32.1238 42.7998 36.4691 41 40.9998 41M40.9998 41C45.5306 41 49.8758 42.7998 53.0796 46.0036C56.2833 49.2073 58.0832 53.5526 58.0832 58.0833V61.5M40.9998 41C43.7183 41 46.3254 39.9201 48.2477 37.9978C50.1699 36.0756 51.2498 33.4685 51.2498 30.75C51.2498 28.0315 50.1699 25.4244 48.2477 23.5022C46.3254 21.5799 43.7183 20.5 40.9998 20.5C38.2814 20.5 35.6742 21.5799 33.752 23.5022C31.8297 25.4244 30.7498 28.0315 30.7498 30.75C30.7498 33.4685 31.8297 36.0756 33.752 37.9978C35.6742 39.9201 38.2814 41 40.9998 41ZM3.4165 61.5V58.0833C3.4165 55.3649 4.49641 52.7577 6.41866 50.8355C8.34091 48.9132 10.948 47.8333 13.6665 47.8333M13.6665 47.8333C15.4788 47.8333 17.2169 47.1134 18.4984 45.8319C19.7799 44.5504 20.4998 42.8123 20.4998 41C20.4998 39.1877 19.7799 37.4496 18.4984 36.1681C17.2169 34.8866 15.4788 34.1667 13.6665 34.1667C11.8542 34.1667 10.1161 34.8866 8.83461 36.1681C7.55311 37.4496 6.83317 39.1877 6.83317 41C6.83317 42.8123 7.55311 44.5504 8.83461 45.8319C10.1161 47.1134 11.8542 47.8333 13.6665 47.8333ZM78.5832 61.5V58.0833C78.5832 55.3649 77.5033 52.7577 75.581 50.8355C73.6588 48.9132 71.0516 47.8333 68.3332 47.8333M68.3332 47.8333C70.1455 47.8333 71.8836 47.1134 73.1651 45.8319C74.4466 44.5504 75.1665 42.8123 75.1665 41C75.1665 39.1877 74.4466 37.4496 73.1651 36.1681C71.8836 34.8866 70.1455 34.1667 68.3332 34.1667C66.5209 34.1667 64.7828 34.8866 63.5013 36.1681C62.2198 37.4496 61.4998 39.1877 61.4998 41C61.4998 42.8123 62.2198 44.5504 63.5013 45.8319C64.7828 47.1134 66.5209 47.8333 68.3332 47.8333Z" stroke="black" stroke-width="5.5625" stroke-linecap="round" stroke-linejoin="round"/>
</svg>
