<svg width="45" height="45" viewBox="0 0 45 45" fill="none" xmlns="http://www.w3.org/2000/svg">
<rect width="45" height="45" fill="#FFC700"/>
<path d="M22.5 5C17.8598 5 13.4055 6.84488 10.127 10.1256C6.84505 13.4076 5.00091 17.8586 5 22.5C5 27.1394 6.8457 31.5937 10.127 34.8744C13.4055 38.1551 17.8598 40 22.5 40C27.1402 40 31.5945 38.1551 34.873 34.8744C38.1543 31.5937 40 27.1394 40 22.5C40 17.8606 38.1543 13.4063 34.873 10.1256C31.5945 6.84488 27.1402 5 22.5 5Z" fill="url(#paint0_linear_241_228)"/>
<path d="M12.9215 22.3151C18.0238 20.0926 21.4254 18.6273 23.1262 17.9193C27.9879 15.8978 28.9969 15.5467 29.6559 15.5348C29.8008 15.5325 30.1234 15.5683 30.334 15.7385C30.509 15.8821 30.5582 16.0762 30.5828 16.2125C30.6047 16.3487 30.6348 16.6591 30.6102 16.9013C30.3477 19.6685 29.2074 26.3836 28.6277 29.483C28.3844 30.7944 27.9004 31.2341 27.4328 31.277C26.4156 31.3706 25.6445 30.6055 24.6602 29.9604C23.1207 28.9506 22.2512 28.3223 20.7555 27.3371C19.0273 26.1985 20.1484 25.5726 21.1328 24.5499C21.3898 24.2822 25.8687 20.2094 25.9535 19.84C25.9644 19.7938 25.9754 19.6215 25.8715 19.5307C25.7703 19.4397 25.6199 19.4708 25.5105 19.4954C25.3547 19.5304 22.8965 21.1568 18.1277 24.3744C17.4305 24.854 16.7988 25.0878 16.2301 25.0755C15.6066 25.0621 14.4035 24.7222 13.5094 24.4318C12.4156 24.0755 11.5434 23.8871 11.6199 23.282C11.6582 22.967 12.093 22.6446 12.9215 22.3151Z" fill="#FFC700"/>
<defs>
<linearGradient id="paint0_linear_241_228" x1="1755" y1="5" x2="1755" y2="3505" gradientUnits="userSpaceOnUse">
<stop stop-color="#159BE0"/>
<stop offset="1" stop-color="#229ED9"/>
</linearGradient>
</defs>
</svg>
